<svg width="44" height="45" viewBox="0 0 44 45" fill="none" xmlns="http://www.w3.org/2000/svg">
<g clip-path="url(#clip0_7_23)">
<path d="M8.03414 0.5C3.58358 0.5 0 4.08358 0 8.53414V36.4659C0 40.9165 3.58358 44.5 8.03414 44.5H23.1729V27.2988H18.6244V21.1058H23.1729V15.8148C23.1729 11.6579 25.8604 7.84114 32.0513 7.84114C34.5579 7.84114 36.4114 8.08177 36.4114 8.08177L36.2656 13.865C36.2656 13.865 34.3753 13.8472 32.3125 13.8472C30.08 13.8472 29.722 14.8758 29.722 16.5835V21.1058H36.443L36.1501 27.2988H29.722V44.5001H35.9659C40.4164 44.5001 44 40.9165 44 36.466V8.53418C44 4.08362 40.4164 0.500044 35.9659 0.500044H8.03409L8.03414 0.5Z" fill="#0E0E2C"/>
</g>
<defs>
<clipPath id="clip0_7_23">
<rect width="44" height="44" fill="white" transform="translate(0 0.5)"/>
</clipPath>
</defs>
</svg>
