<svg width="57" height="57" viewBox="0 0 57 57" fill="none" xmlns="http://www.w3.org/2000/svg">
<path d="M49.7491 19.7244C49.7252 17.9256 49.3885 16.1447 48.754 14.4614C48.2038 13.0415 47.3635 11.752 46.2868 10.6752C45.21 9.59846 43.9205 8.75816 42.5006 8.20799C40.8389 7.58421 39.0834 7.24693 37.3089 7.21049C35.0241 7.10836 34.2998 7.07986 28.5 7.07986C22.7003 7.07986 21.9569 7.07986 19.6888 7.21049C17.915 7.24719 16.1603 7.58448 14.4994 8.20799C13.0793 8.75778 11.7896 9.59794 10.7128 10.6747C9.63597 11.7515 8.7958 13.0413 8.24601 14.4614C7.62099 16.1218 7.28443 17.8769 7.25089 19.6507C7.14876 21.9379 7.11789 22.6622 7.11789 28.462C7.11789 34.2617 7.11789 35.0027 7.25089 37.2732C7.28651 39.0497 7.62139 40.8025 8.24601 42.4674C8.79672 43.887 9.63752 45.1762 10.7147 46.2526C11.7918 47.3289 13.0817 48.1687 14.5018 48.7184C16.1582 49.3672 17.9131 49.7286 19.6911 49.7871C21.9783 49.8892 22.7026 49.9201 28.5024 49.9201C34.3021 49.9201 35.0455 49.9201 37.3136 49.7871C39.0881 49.7522 40.8437 49.4157 42.5054 48.792C43.9249 48.2412 45.2141 47.4006 46.2908 46.324C47.3674 45.2473 48.208 43.9581 48.7588 42.5386C49.3834 40.8761 49.7183 39.1234 49.7539 37.3445C49.856 35.0597 49.8869 34.3354 49.8869 28.5332C49.8821 22.7335 49.8821 21.9972 49.7491 19.7244V19.7244ZM28.4858 39.4297C22.42 39.4297 17.5061 34.5159 17.5061 28.4501C17.5061 22.3844 22.42 17.4705 28.4858 17.4705C31.3977 17.4705 34.1905 18.6273 36.2495 20.6863C38.3086 22.7454 39.4654 25.5381 39.4654 28.4501C39.4654 31.3621 38.3086 34.1548 36.2495 36.2139C34.1905 38.273 31.3977 39.4297 28.4858 39.4297V39.4297ZM39.9024 19.6246C39.5661 19.6249 39.233 19.5589 38.9223 19.4304C38.6115 19.3018 38.3291 19.1132 38.0913 18.8754C37.8535 18.6376 37.6649 18.3553 37.5364 18.0445C37.4078 17.7337 37.3418 17.4007 37.3421 17.0644C37.3421 16.7283 37.4083 16.3955 37.5369 16.0851C37.6655 15.7746 37.854 15.4925 38.0917 15.2548C38.3293 15.0172 38.6114 14.8287 38.9219 14.7001C39.2324 14.5715 39.5651 14.5053 39.9012 14.5053C40.2373 14.5053 40.57 14.5715 40.8805 14.7001C41.191 14.8287 41.4731 15.0172 41.7107 15.2548C41.9484 15.4925 42.1369 15.7746 42.2655 16.0851C42.3941 16.3955 42.4603 16.7283 42.4603 17.0644C42.4603 18.4799 41.3155 19.6246 39.9024 19.6246Z" fill="#0E0E2C"/>
<path d="M28.4858 35.5822C32.4247 35.5822 35.6179 32.3891 35.6179 28.4501C35.6179 24.5112 32.4247 21.318 28.4858 21.318C24.5468 21.318 21.3536 24.5112 21.3536 28.4501C21.3536 32.3891 24.5468 35.5822 28.4858 35.5822Z" fill="#0E0E2C"/>
</svg>
