<svg width="44" height="45" viewBox="0 0 44 45" fill="none" xmlns="http://www.w3.org/2000/svg">
<path d="M13.8215 41.75C30.426 41.75 39.5093 27.9918 39.5093 16.0815C39.5093 15.6965 39.5093 15.306 39.4928 14.921C41.2612 13.6409 42.7874 12.0559 44 10.2405C42.3481 10.9689 40.5976 11.4489 38.8053 11.665C40.6932 10.5365 42.1072 8.76093 42.7845 6.66826C41.0107 7.71911 39.0693 8.45679 37.0452 8.84901C35.6845 7.39983 33.8839 6.43979 31.9222 6.1176C29.9606 5.79541 27.9475 6.12905 26.1947 7.06684C24.4419 8.00464 23.0472 9.49424 22.2267 11.3049C21.4063 13.1156 21.2057 15.1463 21.6562 17.0825C18.0668 16.9025 14.5552 15.9701 11.3494 14.3456C8.14349 12.7211 5.31488 10.4408 3.047 7.65276C1.89569 9.64124 1.54433 11.9934 2.06428 14.2315C2.58423 16.4696 3.9365 18.426 5.8465 19.7033C4.41523 19.6546 3.01543 19.2703 1.76 18.5813V18.705C1.76247 20.7881 2.48409 22.8064 3.8029 24.4189C5.12171 26.0313 6.95681 27.1389 8.998 27.5545C8.22322 27.768 7.42288 27.8744 6.61925 27.8708C6.05271 27.8725 5.4873 27.82 4.93075 27.714C5.50766 29.5072 6.631 31.075 8.14343 32.1978C9.65586 33.3207 11.4816 33.9424 13.365 33.9758C10.1655 36.4887 6.21335 37.8516 2.145 37.845C1.42813 37.848 0.711764 37.8067 0 37.7213C4.12917 40.3537 8.92457 41.7515 13.8215 41.75Z" fill="#0E0E2C"/>
</svg>
