<svg width="106" height="93" viewBox="0 0 106 93" fill="none" xmlns="http://www.w3.org/2000/svg">
<circle cx="45" cy="45" r="45" fill="#56CCF2"/>
<g filter="url(#filter0_d_81_538)">
<path d="M53.02 33.84V47.82C53.02 53.22 53.4 57.18 54.16 59.7C53.6 60.02 52.52 60.18 50.92 60.18C49.28 60.18 48.18 59.92 47.62 59.4C47.06 58.88 46.78 58 46.78 56.76V29.76C44.14 36.32 40.78 46.36 36.7 59.88C36.06 60.04 35.32 60.12 34.48 60.12C32.4 60.12 31.12 59.6 30.64 58.56C29.44 55.92 27.66 51.2 25.3 44.4C22.94 37.56 21.16 32.64 19.96 29.64V47.82C19.96 53.22 20.34 57.18 21.1 59.7C20.02 60.02 18.98 60.18 17.98 60.18C16.58 60.18 15.62 59.92 15.1 59.4C14.62 58.88 14.38 58 14.38 56.76C14.38 56.12 14.4 54.54 14.44 52.02C14.48 49.5 14.5 47.54 14.5 46.14V31.02C14.5 26.54 14.12 23.02 13.36 20.46C14.96 20.14 16.38 19.98 17.62 19.98C19.9 19.98 21.64 20.94 22.84 22.86C24.36 25.3 25.84 28.36 27.28 32.04C28.76 35.68 29.88 38.76 30.64 41.28C31.44 43.8 32.54 47.42 33.94 52.14C37.3 39.5 41.02 29.7 45.1 22.74C46.14 20.9 47.84 19.98 50.2 19.98C51.76 19.98 53.06 20.14 54.1 20.46C53.38 22.86 53.02 27.32 53.02 33.84Z" fill="#FAFAFA"/>
</g>
<g filter="url(#filter1_d_81_538)">
<path d="M82.2 53.4C82.9667 53.4 83.5167 53.5667 83.85 53.9C84.2167 54.2333 84.4 54.6667 84.4 55.2C84.4 56.0667 84.1333 56.8333 83.6 57.5C83.1 58.1667 82.3 58.5167 81.2 58.55C78.5333 58.6167 76.1667 58.4167 74.1 57.95C71.7333 62.9167 68.8667 67.05 65.5 70.35C62.1667 73.6167 58.8167 75.25 55.45 75.25C51.9833 75.25 49.4 73.2333 47.7 69.2C46 65.1667 45.15 59.7167 45.15 52.85C45.15 46.9833 45.5667 41.7167 46.4 37.05C46.7 35.3167 47.1167 34.15 47.65 33.55C48.2167 32.9167 49.1667 32.6 50.5 32.6C52.7 32.6 53.8 33.55 53.8 35.45C53.8 35.65 53.7667 36.0167 53.7 36.55C52.7 42.55 52.2 47.9833 52.2 52.85C52.2 57.95 52.6167 61.8333 53.45 64.5C54.3167 67.1333 55.6 68.45 57.3 68.45C59.0333 68.45 60.9167 67.25 62.95 64.85C64.9833 62.45 66.85 59.4333 68.55 55.8C66.5167 54.5333 64.9833 52.9 63.95 50.9C62.9167 48.8667 62.4 46.5333 62.4 43.9C62.4 41.2667 62.8 39.05 63.6 37.25C64.4333 35.4167 65.55 34.05 66.95 33.15C68.3833 32.25 69.9667 31.8 71.7 31.8C73.8333 31.8 75.5167 32.5667 76.75 34.1C78.0167 35.6333 78.65 37.7333 78.65 40.4C78.65 44.2333 77.8167 48.4167 76.15 52.95C77.9167 53.25 79.9333 53.4 82.2 53.4ZM67.45 43.55C67.45 46.8167 68.5 49.2333 70.6 50.8C71.9 47.0667 72.55 43.9833 72.55 41.55C72.55 40.15 72.3667 39.1333 72 38.5C71.6333 37.8333 71.1333 37.5 70.5 37.5C69.6 37.5 68.8667 38.0333 68.3 39.1C67.7333 40.1333 67.45 41.6167 67.45 43.55Z" fill="#FAFAFA"/>
</g>
<defs>
<filter id="filter0_d_81_538" x="9.35999" y="19.98" width="48.8" height="48.2" filterUnits="userSpaceOnUse" color-interpolation-filters="sRGB">
<feFlood flood-opacity="0" result="BackgroundImageFix"/>
<feColorMatrix in="SourceAlpha" type="matrix" values="0 0 0 0 0 0 0 0 0 0 0 0 0 0 0 0 0 0 127 0" result="hardAlpha"/>
<feOffset dy="4"/>
<feGaussianBlur stdDeviation="2"/>
<feComposite in2="hardAlpha" operator="out"/>
<feColorMatrix type="matrix" values="0 0 0 0 0 0 0 0 0 0 0 0 0 0 0 0 0 0 0.25 0"/>
<feBlend mode="normal" in2="BackgroundImageFix" result="effect1_dropShadow_81_538"/>
<feBlend mode="normal" in="SourceGraphic" in2="effect1_dropShadow_81_538" result="shape"/>
</filter>
<filter id="filter1_d_81_538" x="41.15" y="31.8" width="47.25" height="51.45" filterUnits="userSpaceOnUse" color-interpolation-filters="sRGB">
<feFlood flood-opacity="0" result="BackgroundImageFix"/>
<feColorMatrix in="SourceAlpha" type="matrix" values="0 0 0 0 0 0 0 0 0 0 0 0 0 0 0 0 0 0 127 0" result="hardAlpha"/>
<feOffset dy="4"/>
<feGaussianBlur stdDeviation="2"/>
<feComposite in2="hardAlpha" operator="out"/>
<feColorMatrix type="matrix" values="0 0 0 0 0 0 0 0 0 0 0 0 0 0 0 0 0 0 0.25 0"/>
<feBlend mode="normal" in2="BackgroundImageFix" result="effect1_dropShadow_81_538"/>
<feBlend mode="normal" in="SourceGraphic" in2="effect1_dropShadow_81_538" result="shape"/>
</filter>
</defs>
</svg>
